<mxfile host="app.diagrams.net" modified="2023-11-07T10:02:21.673Z" agent="Mozilla/5.0 (Windows NT 10.0; Win64; x64) AppleWebKit/537.36 (KHTML, like Gecko) Chrome/118.0.0.0 Safari/537.36" etag="vH2Rh5PU-CgofWNBKmxh" version="22.0.8" type="device">
  <diagram name="Page-1" id="J8rsw0NZh_nXFY_qEM8y">
    <mxGraphModel dx="1298" dy="798" grid="1" gridSize="10" guides="1" tooltips="1" connect="1" arrows="1" fold="1" page="1" pageScale="1" pageWidth="827" pageHeight="583" math="0" shadow="0">
      <root>
        <mxCell id="0" />
        <mxCell id="1" parent="0" />
        <mxCell id="1EAQLr4oKsGCfvazLZxf-13" value="" style="html=1;whiteSpace=wrap;shape=isoCube2;backgroundOutline=1;isoAngle=15;gradientColor=#3E7F53;gradientDirection=east;" vertex="1" parent="1">
          <mxGeometry x="200" y="380" width="160" height="80" as="geometry" />
        </mxCell>
        <mxCell id="1EAQLr4oKsGCfvazLZxf-12" value="" style="html=1;whiteSpace=wrap;shape=isoCube2;backgroundOutline=1;isoAngle=15;gradientColor=#f21818;gradientDirection=west;" vertex="1" parent="1">
          <mxGeometry x="200" y="370" width="160" height="80" as="geometry" />
        </mxCell>
        <mxCell id="1EAQLr4oKsGCfvazLZxf-1" value="" style="html=1;whiteSpace=wrap;shape=isoCube2;backgroundOutline=1;isoAngle=15;gradientColor=#57FF89;" vertex="1" parent="1">
          <mxGeometry x="200" y="360" width="160" height="80" as="geometry" />
        </mxCell>
        <mxCell id="1EAQLr4oKsGCfvazLZxf-14" value="" style="html=1;whiteSpace=wrap;shape=isoCube2;backgroundOutline=1;isoAngle=15;gradientColor=#1303FF;gradientDirection=west;fillColor=#C8FF59;" vertex="1" parent="1">
          <mxGeometry x="200" y="310" width="160" height="80" as="geometry" />
        </mxCell>
        <mxCell id="1EAQLr4oKsGCfvazLZxf-2" value="" style="html=1;whiteSpace=wrap;shape=isoCube2;backgroundOutline=1;isoAngle=15;gradientColor=#1303FF;gradientDirection=east;strokeColor=default;fillColor=#C8FF59;shadow=0;treeFolding=0;" vertex="1" parent="1">
          <mxGeometry x="200" y="300" width="160" height="80" as="geometry" />
        </mxCell>
        <mxCell id="1EAQLr4oKsGCfvazLZxf-3" value="" style="html=1;whiteSpace=wrap;shape=isoCube2;backgroundOutline=1;isoAngle=15;" vertex="1" parent="1">
          <mxGeometry x="200" y="240" width="160" height="80" as="geometry" />
        </mxCell>
        <mxCell id="1EAQLr4oKsGCfvazLZxf-5" value="State (environment)" style="text;html=1;strokeColor=none;fillColor=none;align=right;verticalAlign=middle;whiteSpace=wrap;rounded=0;" vertex="1" parent="1">
          <mxGeometry x="30" y="390" width="130" height="30" as="geometry" />
        </mxCell>
        <mxCell id="1EAQLr4oKsGCfvazLZxf-6" value="State (target/s)" style="text;html=1;strokeColor=none;fillColor=none;align=right;verticalAlign=middle;whiteSpace=wrap;rounded=0;" vertex="1" parent="1">
          <mxGeometry x="50" y="325" width="110" height="30" as="geometry" />
        </mxCell>
        <mxCell id="1EAQLr4oKsGCfvazLZxf-7" value="Effort" style="text;html=1;strokeColor=none;fillColor=none;align=right;verticalAlign=middle;whiteSpace=wrap;rounded=0;" vertex="1" parent="1">
          <mxGeometry x="100" y="265" width="60" height="30" as="geometry" />
        </mxCell>
        <mxCell id="1EAQLr4oKsGCfvazLZxf-8" value="" style="html=1;whiteSpace=wrap;shape=isoCube2;backgroundOutline=1;isoAngle=15;" vertex="1" parent="1">
          <mxGeometry x="200" y="180" width="160" height="80" as="geometry" />
        </mxCell>
        <mxCell id="1EAQLr4oKsGCfvazLZxf-9" value="Identification/Detection" style="text;html=1;strokeColor=none;fillColor=none;align=right;verticalAlign=middle;whiteSpace=wrap;rounded=0;" vertex="1" parent="1">
          <mxGeometry x="100" y="205" width="60" height="30" as="geometry" />
        </mxCell>
        <mxCell id="1EAQLr4oKsGCfvazLZxf-10" value="Reporting" style="text;html=1;strokeColor=none;fillColor=none;align=right;verticalAlign=middle;whiteSpace=wrap;rounded=0;" vertex="1" parent="1">
          <mxGeometry x="100" y="145" width="60" height="30" as="geometry" />
        </mxCell>
        <mxCell id="1EAQLr4oKsGCfvazLZxf-11" value="" style="html=1;whiteSpace=wrap;shape=isoCube2;backgroundOutline=1;isoAngle=15;" vertex="1" parent="1">
          <mxGeometry x="200" y="120" width="160" height="80" as="geometry" />
        </mxCell>
        <mxCell id="1EAQLr4oKsGCfvazLZxf-15" value="What is the state of the biotic and abiotic environment?" style="text;html=1;strokeColor=none;fillColor=none;align=left;verticalAlign=middle;whiteSpace=wrap;rounded=0;" vertex="1" parent="1">
          <mxGeometry x="400" y="395" width="160" height="30" as="geometry" />
        </mxCell>
        <mxCell id="1EAQLr4oKsGCfvazLZxf-16" value="What is the state of the target/s (eg. species) environment?" style="text;html=1;strokeColor=none;fillColor=none;align=left;verticalAlign=middle;whiteSpace=wrap;rounded=0;" vertex="1" parent="1">
          <mxGeometry x="400" y="330" width="160" height="30" as="geometry" />
        </mxCell>
        <mxCell id="1EAQLr4oKsGCfvazLZxf-17" value="Where is sampled?" style="text;html=1;strokeColor=none;fillColor=none;align=left;verticalAlign=middle;whiteSpace=wrap;rounded=0;" vertex="1" parent="1">
          <mxGeometry x="400" y="265" width="160" height="30" as="geometry" />
        </mxCell>
        <mxCell id="1EAQLr4oKsGCfvazLZxf-18" value="Of the interactions between sampling and target, is the target detected?&amp;nbsp;" style="text;html=1;strokeColor=none;fillColor=none;align=left;verticalAlign=middle;whiteSpace=wrap;rounded=0;" vertex="1" parent="1">
          <mxGeometry x="400" y="205" width="160" height="30" as="geometry" />
        </mxCell>
        <mxCell id="1EAQLr4oKsGCfvazLZxf-19" value="Are the detections reported?&amp;nbsp;" style="text;html=1;strokeColor=none;fillColor=none;align=left;verticalAlign=middle;whiteSpace=wrap;rounded=0;" vertex="1" parent="1">
          <mxGeometry x="400" y="145" width="160" height="30" as="geometry" />
        </mxCell>
        <mxCell id="1EAQLr4oKsGCfvazLZxf-22" value="" style="shape=umlActor;verticalLabelPosition=bottom;verticalAlign=top;html=1;outlineConnect=0;fillColor=#d5e8d4;strokeColor=#82b366;" vertex="1" parent="1">
          <mxGeometry x="240" y="270" width="10" height="20" as="geometry" />
        </mxCell>
        <mxCell id="1EAQLr4oKsGCfvazLZxf-23" value="" style="shape=umlActor;verticalLabelPosition=bottom;verticalAlign=top;html=1;outlineConnect=0;fillColor=#f8cecc;strokeColor=#b85450;" vertex="1" parent="1">
          <mxGeometry x="320" y="260" width="10" height="20" as="geometry" />
        </mxCell>
        <mxCell id="1EAQLr4oKsGCfvazLZxf-28" value="" style="shape=umlActor;verticalLabelPosition=bottom;verticalAlign=top;html=1;outlineConnect=0;fillColor=#dae8fc;strokeColor=#6c8ebf;" vertex="1" parent="1">
          <mxGeometry x="290" y="270" width="10" height="20" as="geometry" />
        </mxCell>
        <mxCell id="1EAQLr4oKsGCfvazLZxf-31" value="" style="edgeStyle=isometricEdgeStyle;endArrow=none;html=1;elbow=vertical;rounded=0;entryX=0.5;entryY=0;entryDx=0;entryDy=0;entryPerimeter=0;dashed=1;dashPattern=1 1;fillColor=#d5e8d4;strokeColor=#82b366;" edge="1" parent="1">
          <mxGeometry width="50" height="100" relative="1" as="geometry">
            <mxPoint x="242.70000000000002" y="285" as="sourcePoint" />
            <mxPoint x="247.3" y="255" as="targetPoint" />
          </mxGeometry>
        </mxCell>
        <mxCell id="1EAQLr4oKsGCfvazLZxf-32" value="" style="edgeStyle=isometricEdgeStyle;endArrow=none;html=1;elbow=vertical;rounded=0;entryX=0.5;entryY=0;entryDx=0;entryDy=0;entryPerimeter=0;dashed=1;dashPattern=1 1;fillColor=#dae8fc;strokeColor=#6c8ebf;" edge="1" parent="1">
          <mxGeometry width="50" height="100" relative="1" as="geometry">
            <mxPoint x="292.70000000000005" y="285" as="sourcePoint" />
            <mxPoint x="297.3" y="255" as="targetPoint" />
          </mxGeometry>
        </mxCell>
        <mxCell id="1EAQLr4oKsGCfvazLZxf-34" value="" style="edgeStyle=isometricEdgeStyle;endArrow=none;html=1;elbow=vertical;rounded=0;entryX=0;entryY=1;entryDx=0;entryDy=0;entryPerimeter=0;dashed=1;dashPattern=1 1;exitX=0.375;exitY=0.5;exitDx=0;exitDy=0;exitPerimeter=0;fillColor=#f8cecc;strokeColor=#b85450;" edge="1" parent="1" source="1EAQLr4oKsGCfvazLZxf-3" target="1EAQLr4oKsGCfvazLZxf-23">
          <mxGeometry width="50" height="100" relative="1" as="geometry">
            <mxPoint x="252.70000000000002" y="295" as="sourcePoint" />
            <mxPoint x="257.3" y="265" as="targetPoint" />
          </mxGeometry>
        </mxCell>
        <mxCell id="1EAQLr4oKsGCfvazLZxf-35" value="" style="edgeStyle=isometricEdgeStyle;endArrow=none;html=1;elbow=vertical;rounded=0;entryX=0.5;entryY=0;entryDx=0;entryDy=0;entryPerimeter=0;dashed=1;dashPattern=1 1;fillColor=#d5e8d4;strokeColor=#82b366;" edge="1" parent="1">
          <mxGeometry width="50" height="100" relative="1" as="geometry">
            <mxPoint x="242.70000000000002" y="226" as="sourcePoint" />
            <mxPoint x="247.3" y="196" as="targetPoint" />
          </mxGeometry>
        </mxCell>
        <mxCell id="1EAQLr4oKsGCfvazLZxf-36" value="" style="edgeStyle=isometricEdgeStyle;endArrow=none;html=1;elbow=vertical;rounded=0;entryX=0;entryY=1;entryDx=0;entryDy=0;entryPerimeter=0;dashed=1;dashPattern=1 1;exitX=0.375;exitY=0.5;exitDx=0;exitDy=0;exitPerimeter=0;fillColor=#f8cecc;strokeColor=#b85450;" edge="1" parent="1">
          <mxGeometry width="50" height="100" relative="1" as="geometry">
            <mxPoint x="260" y="220" as="sourcePoint" />
            <mxPoint x="320" y="220" as="targetPoint" />
          </mxGeometry>
        </mxCell>
        <mxCell id="1EAQLr4oKsGCfvazLZxf-37" value="" style="edgeStyle=isometricEdgeStyle;endArrow=none;html=1;elbow=vertical;rounded=0;entryX=0.5;entryY=0;entryDx=0;entryDy=0;entryPerimeter=0;dashed=1;dashPattern=1 1;fillColor=#dae8fc;strokeColor=#6c8ebf;" edge="1" parent="1">
          <mxGeometry width="50" height="100" relative="1" as="geometry">
            <mxPoint x="289.84000000000003" y="227" as="sourcePoint" />
            <mxPoint x="294.44" y="197" as="targetPoint" />
          </mxGeometry>
        </mxCell>
        <mxCell id="1EAQLr4oKsGCfvazLZxf-38" value="" style="triangle;whiteSpace=wrap;html=1;rotation=90;rounded=1;" vertex="1" parent="1">
          <mxGeometry x="230" y="205" width="10" height="10" as="geometry" />
        </mxCell>
        <mxCell id="1EAQLr4oKsGCfvazLZxf-39" value="" style="triangle;whiteSpace=wrap;html=1;rotation=90;rounded=1;" vertex="1" parent="1">
          <mxGeometry x="290" y="200" width="10" height="10" as="geometry" />
        </mxCell>
        <mxCell id="1EAQLr4oKsGCfvazLZxf-41" value="" style="triangle;whiteSpace=wrap;html=1;rotation=90;rounded=1;" vertex="1" parent="1">
          <mxGeometry x="260" y="210" width="10" height="10" as="geometry" />
        </mxCell>
        <mxCell id="1EAQLr4oKsGCfvazLZxf-44" value="" style="edgeStyle=isometricEdgeStyle;endArrow=none;html=1;elbow=vertical;rounded=0;entryX=0.5;entryY=0;entryDx=0;entryDy=0;entryPerimeter=0;dashed=1;dashPattern=1 1;fillColor=#d5e8d4;strokeColor=#82b366;" edge="1" parent="1">
          <mxGeometry width="50" height="100" relative="1" as="geometry">
            <mxPoint x="247.70000000000002" y="162" as="sourcePoint" />
            <mxPoint x="252.3" y="132" as="targetPoint" />
          </mxGeometry>
        </mxCell>
        <mxCell id="1EAQLr4oKsGCfvazLZxf-45" value="" style="edgeStyle=isometricEdgeStyle;endArrow=none;html=1;elbow=vertical;rounded=0;entryX=0;entryY=1;entryDx=0;entryDy=0;entryPerimeter=0;dashed=1;dashPattern=1 1;exitX=0.375;exitY=0.5;exitDx=0;exitDy=0;exitPerimeter=0;fillColor=#f8cecc;strokeColor=#b85450;" edge="1" parent="1">
          <mxGeometry width="50" height="100" relative="1" as="geometry">
            <mxPoint x="265" y="156" as="sourcePoint" />
            <mxPoint x="325" y="156" as="targetPoint" />
          </mxGeometry>
        </mxCell>
        <mxCell id="1EAQLr4oKsGCfvazLZxf-46" value="" style="edgeStyle=isometricEdgeStyle;endArrow=none;html=1;elbow=vertical;rounded=0;entryX=0.5;entryY=0;entryDx=0;entryDy=0;entryPerimeter=0;dashed=1;dashPattern=1 1;fillColor=#dae8fc;strokeColor=#6c8ebf;" edge="1" parent="1">
          <mxGeometry width="50" height="100" relative="1" as="geometry">
            <mxPoint x="294.84000000000003" y="163" as="sourcePoint" />
            <mxPoint x="299.44" y="133" as="targetPoint" />
          </mxGeometry>
        </mxCell>
        <mxCell id="1EAQLr4oKsGCfvazLZxf-47" value="" style="triangle;whiteSpace=wrap;html=1;rotation=90;rounded=1;shadow=0;" vertex="1" parent="1">
          <mxGeometry x="235" y="141" width="10" height="10" as="geometry" />
        </mxCell>
        <mxCell id="1EAQLr4oKsGCfvazLZxf-48" value="" style="triangle;whiteSpace=wrap;html=1;rotation=90;rounded=1;" vertex="1" parent="1">
          <mxGeometry x="295" y="136" width="10" height="10" as="geometry" />
        </mxCell>
        <mxCell id="1EAQLr4oKsGCfvazLZxf-49" value="" style="triangle;whiteSpace=wrap;html=1;rotation=90;opacity=20;rounded=1;" vertex="1" parent="1">
          <mxGeometry x="265" y="146" width="10" height="10" as="geometry" />
        </mxCell>
        <mxCell id="1EAQLr4oKsGCfvazLZxf-50" value="" style="shape=cylinder3;whiteSpace=wrap;html=1;boundedLbl=1;backgroundOutline=1;size=6.551724137931103;" vertex="1" parent="1">
          <mxGeometry x="324" y="60" width="36" height="40" as="geometry" />
        </mxCell>
        <mxCell id="1EAQLr4oKsGCfvazLZxf-51" style="edgeStyle=orthogonalEdgeStyle;rounded=0;orthogonalLoop=1;jettySize=auto;html=1;exitX=0;exitY=0.5;exitDx=0;exitDy=0;entryX=0;entryY=0;entryDx=0;entryDy=13.275862068965552;entryPerimeter=0;" edge="1" parent="1" source="1EAQLr4oKsGCfvazLZxf-47" target="1EAQLr4oKsGCfvazLZxf-50">
          <mxGeometry relative="1" as="geometry" />
        </mxCell>
        <mxCell id="1EAQLr4oKsGCfvazLZxf-52" value="Simulated biodiversity database" style="text;html=1;strokeColor=none;fillColor=none;align=left;verticalAlign=middle;whiteSpace=wrap;rounded=0;" vertex="1" parent="1">
          <mxGeometry x="365" y="60" width="130" height="30" as="geometry" />
        </mxCell>
        <mxCell id="1EAQLr4oKsGCfvazLZxf-53" style="edgeStyle=orthogonalEdgeStyle;rounded=0;orthogonalLoop=1;jettySize=auto;html=1;exitX=0;exitY=0.5;exitDx=0;exitDy=0;entryX=0;entryY=0;entryDx=0;entryDy=26.72413793103445;entryPerimeter=0;" edge="1" parent="1" source="1EAQLr4oKsGCfvazLZxf-48" target="1EAQLr4oKsGCfvazLZxf-50">
          <mxGeometry relative="1" as="geometry" />
        </mxCell>
        <mxCell id="1EAQLr4oKsGCfvazLZxf-54" value="&lt;b&gt;Process&lt;/b&gt;" style="text;html=1;strokeColor=none;fillColor=none;align=right;verticalAlign=middle;whiteSpace=wrap;rounded=0;" vertex="1" parent="1">
          <mxGeometry x="100" y="106" width="60" height="30" as="geometry" />
        </mxCell>
        <mxCell id="1EAQLr4oKsGCfvazLZxf-55" value="&lt;b&gt;Description&lt;/b&gt;" style="text;html=1;strokeColor=none;fillColor=none;align=left;verticalAlign=middle;whiteSpace=wrap;rounded=0;" vertex="1" parent="1">
          <mxGeometry x="400" y="106" width="60" height="30" as="geometry" />
        </mxCell>
        <mxCell id="1EAQLr4oKsGCfvazLZxf-56" value="&lt;b&gt;Output format&lt;/b&gt;" style="text;html=1;strokeColor=none;fillColor=none;align=left;verticalAlign=middle;whiteSpace=wrap;rounded=0;" vertex="1" parent="1">
          <mxGeometry x="760" y="106" width="60" height="30" as="geometry" />
        </mxCell>
        <mxCell id="1EAQLr4oKsGCfvazLZxf-57" value="sf" style="text;html=1;strokeColor=none;fillColor=none;align=left;verticalAlign=middle;whiteSpace=wrap;rounded=0;" vertex="1" parent="1">
          <mxGeometry x="760" y="146" width="60" height="30" as="geometry" />
        </mxCell>
        <mxCell id="1EAQLr4oKsGCfvazLZxf-58" value="sf" style="text;html=1;strokeColor=none;fillColor=none;align=left;verticalAlign=middle;whiteSpace=wrap;rounded=0;" vertex="1" parent="1">
          <mxGeometry x="760" y="200" width="60" height="30" as="geometry" />
        </mxCell>
        <mxCell id="1EAQLr4oKsGCfvazLZxf-60" value="sf" style="text;html=1;strokeColor=none;fillColor=none;align=left;verticalAlign=middle;whiteSpace=wrap;rounded=0;" vertex="1" parent="1">
          <mxGeometry x="760" y="262" width="60" height="30" as="geometry" />
        </mxCell>
        <mxCell id="1EAQLr4oKsGCfvazLZxf-61" value="SpatRaster" style="text;html=1;strokeColor=none;fillColor=none;align=left;verticalAlign=middle;whiteSpace=wrap;rounded=0;" vertex="1" parent="1">
          <mxGeometry x="760" y="330" width="60" height="30" as="geometry" />
        </mxCell>
        <mxCell id="1EAQLr4oKsGCfvazLZxf-62" value="SpatRaster" style="text;html=1;strokeColor=none;fillColor=none;align=left;verticalAlign=middle;whiteSpace=wrap;rounded=0;" vertex="1" parent="1">
          <mxGeometry x="760" y="390" width="60" height="30" as="geometry" />
        </mxCell>
        <mxCell id="1EAQLr4oKsGCfvazLZxf-63" value="&lt;b&gt;Function prefix&lt;/b&gt;" style="text;html=1;strokeColor=none;fillColor=none;align=left;verticalAlign=middle;whiteSpace=wrap;rounded=0;" vertex="1" parent="1">
          <mxGeometry x="600" y="106" width="100" height="30" as="geometry" />
        </mxCell>
        <mxCell id="1EAQLr4oKsGCfvazLZxf-64" value="sim_report_..." style="text;html=1;strokeColor=none;fillColor=none;align=left;verticalAlign=middle;whiteSpace=wrap;rounded=0;" vertex="1" parent="1">
          <mxGeometry x="600" y="145" width="140" height="30" as="geometry" />
        </mxCell>
        <mxCell id="1EAQLr4oKsGCfvazLZxf-65" value="sim_detection_..." style="text;html=1;strokeColor=none;fillColor=none;align=left;verticalAlign=middle;whiteSpace=wrap;rounded=0;" vertex="1" parent="1">
          <mxGeometry x="600" y="205" width="140" height="30" as="geometry" />
        </mxCell>
        <mxCell id="1EAQLr4oKsGCfvazLZxf-66" value="sim_effort_..." style="text;html=1;strokeColor=none;fillColor=none;align=left;verticalAlign=middle;whiteSpace=wrap;rounded=0;" vertex="1" parent="1">
          <mxGeometry x="600" y="265" width="140" height="30" as="geometry" />
        </mxCell>
        <mxCell id="1EAQLr4oKsGCfvazLZxf-67" value="sim_state_target_..." style="text;html=1;strokeColor=none;fillColor=none;align=left;verticalAlign=middle;whiteSpace=wrap;rounded=0;" vertex="1" parent="1">
          <mxGeometry x="600" y="325" width="140" height="30" as="geometry" />
        </mxCell>
        <mxCell id="1EAQLr4oKsGCfvazLZxf-68" value="sim_state_env_..." style="text;html=1;strokeColor=none;fillColor=none;align=left;verticalAlign=middle;whiteSpace=wrap;rounded=0;" vertex="1" parent="1">
          <mxGeometry x="600" y="390" width="140" height="30" as="geometry" />
        </mxCell>
      </root>
    </mxGraphModel>
  </diagram>
</mxfile>
